<?xml version="1.0" standalone="no"?>
<!DOCTYPE svg PUBLIC "-//W3C//DTD SVG 20010904//EN"
 "http://www.w3.org/TR/2001/REC-SVG-20010904/DTD/svg10.dtd">
<svg version="1.0" xmlns="http://www.w3.org/2000/svg"
 width="512.000000pt" height="512.000000pt" viewBox="0 0 512.000000 512.000000"
 preserveAspectRatio="xMidYMid meet">
<metadata>
Created by potrace 1.14, written by Peter Selinger 2001-2017
</metadata>
<g transform="translate(0.000000,512.000000) scale(0.100000,-0.100000)"
fill="#000000" stroke="none">
<path d="M505 4790 c-6 -10 -72 -280 -80 -330 -3 -19 -8 -42 -10 -50 -2 -8 -7
-33 -10 -55 -3 -23 -7 -50 -9 -61 -2 -12 -7 -45 -11 -74 -4 -29 -8 -60 -10
-69 -1 -9 -6 -45 -10 -81 -3 -36 -8 -76 -10 -90 -4 -28 -13 -109 -21 -185 -2
-27 -6 -70 -9 -95 -2 -25 -7 -79 -11 -120 -5 -67 -16 -109 -44 -175 -23 -53
-94 -290 -134 -446 -49 -192 -100 -450 -112 -567 -2 -26 -8 -81 -13 -122 -9
-80 -8 -475 2 -500 3 -8 8 -33 11 -55 14 -112 62 -269 113 -365 72 -135 248
-362 380 -490 226 -218 488 -334 968 -429 123 -24 168 -31 350 -56 105 -14
108 -14 270 -30 256 -26 691 -26 905 0 19 2 67 7 105 10 39 3 84 8 100 10 60
8 191 26 215 30 14 3 43 7 65 10 22 4 96 18 165 32 362 73 591 157 780 286 75
52 241 210 315 301 86 104 208 284 240 352 55 117 97 270 112 404 15 142 9
497 -11 615 -3 17 -7 46 -10 65 -6 53 -36 220 -46 260 -5 19 -12 51 -15 70 -3
19 -11 53 -16 75 -6 22 -13 49 -15 60 -11 58 -82 297 -129 433 -33 96 -56 182
-59 222 -6 67 -14 145 -21 215 -2 22 -7 67 -10 100 -3 33 -8 74 -10 90 -2 17
-7 53 -10 80 -13 108 -40 291 -50 345 -3 14 -7 35 -9 46 -31 163 -80 340 -93
337 -21 -4 -259 -147 -373 -223 -126 -85 -310 -227 -465 -359 -55 -47 -102
-88 -105 -91 -3 -3 -38 -34 -78 -69 -60 -53 -77 -62 -100 -58 -269 51 -308 56
-542 74 -201 15 -781 8 -901 -12 -13 -2 -51 -6 -84 -9 -33 -3 -70 -8 -81 -10
-12 -2 -39 -7 -60 -10 -22 -4 -76 -14 -121 -23 l-83 -16 -77 69 c-43 38 -80
71 -83 74 -13 15 -256 215 -342 282 -120 94 -336 239 -458 309 -114 65 -140
77 -145 69z"/>
</g>
</svg>
